<?xml version="1.0" encoding="us-ascii" standalone="no"?><svg xmlns="http://www.w3.org/2000/svg" xmlns:xlink="http://www.w3.org/1999/xlink" contentStyleType="text/css" height="759px" preserveAspectRatio="none" style="width:1201px;height:759px;background:#FFFFFF;" version="1.1" viewBox="0 0 1201 759" width="1201px" zoomAndPan="magnify"><defs><linearGradient id="g1ohr5wbu00q0i0" x1="50%" x2="50%" y1="0%" y2="100%"><stop offset="0%" stop-color="#FFFFFF"/><stop offset="100%" stop-color="#C2F0FF"/></linearGradient></defs><g><text fill="#000000" font-family="sans-serif" font-size="14" font-weight="bold" lengthAdjust="spacing" textLength="79" x="554" y="22.9951">symfony2</text><!--class doctrine_migration_versions--><g id="elem_doctrine_migration_versions"><rect codeLine="15" fill="url(#g1ohr5wbu00q0i0)" height="91.1875" id="doctrine_migration_versions" rx="2.5" ry="2.5" style="stroke:#778899;stroke-width:1.0;" width="210" x="7" y="60.7969"/><rect fill="url(#g1ohr5wbu00q0i0)" height="26.2969" rx="2.5" ry="2.5" style="stroke:url(#g1ohr5wbu00q0i0);stroke-width:1.0;" width="210" x="7" y="60.7969"/><rect fill="url(#g1ohr5wbu00q0i0)" height="2.5" style="stroke:url(#g1ohr5wbu00q0i0);stroke-width:1.0;" width="210" x="7" y="84.5938"/><rect codeLine="15" fill="none" height="91.1875" id="doctrine_migration_versions" rx="2.5" ry="2.5" style="stroke:#778899;stroke-width:1.0;" width="210" x="7" y="60.7969"/><text fill="#000000" font-family="sans-serif" font-size="14" lengthAdjust="spacing" textLength="204" x="10" y="78.792">doctrine_migration_versions</text><line style="stroke:#778899;stroke-width:1.0;" x1="8" x2="216" y1="87.0938" y2="87.0938"/><line style="stroke:#778899;stroke-width:1.0;" x1="8" x2="216" y1="95.0938" y2="95.0938"/><ellipse cx="18" cy="108.7422" fill="#000000" rx="3" ry="3" style="stroke:#000000;stroke-width:1.0;"/><text fill="#000000" font-family="sans-serif" font-size="14" lengthAdjust="spacing" textLength="103" x="27" y="112.0889">version: string</text><text fill="#000000" font-family="sans-serif" font-size="14" lengthAdjust="spacing" textLength="165" x="27" y="128.3857">executed_at: datetime</text><text fill="#000000" font-family="sans-serif" font-size="14" lengthAdjust="spacing" textLength="174" x="27" y="144.6826">execution_time: integer</text></g><!--class user--><g id="elem_user"><rect codeLine="21" fill="url(#g1ohr5wbu00q0i0)" height="156.375" id="user" rx="2.5" ry="2.5" style="stroke:#778899;stroke-width:1.0;" width="154" x="735" y="596.2969"/><rect fill="url(#g1ohr5wbu00q0i0)" height="26.2969" rx="2.5" ry="2.5" style="stroke:url(#g1ohr5wbu00q0i0);stroke-width:1.0;" width="154" x="735" y="596.2969"/><rect fill="url(#g1ohr5wbu00q0i0)" height="2.5" style="stroke:url(#g1ohr5wbu00q0i0);stroke-width:1.0;" width="154" x="735" y="620.0938"/><rect codeLine="21" fill="none" height="156.375" id="user" rx="2.5" ry="2.5" style="stroke:#778899;stroke-width:1.0;" width="154" x="735" y="596.2969"/><text fill="#000000" font-family="sans-serif" font-size="14" lengthAdjust="spacing" textLength="30" x="797" y="614.292">user</text><line style="stroke:#778899;stroke-width:1.0;" x1="736" x2="888" y1="622.5938" y2="622.5938"/><line style="stroke:#778899;stroke-width:1.0;" x1="736" x2="888" y1="630.5938" y2="630.5938"/><ellipse cx="746" cy="644.2422" fill="#000000" rx="3" ry="3" style="stroke:#000000;stroke-width:1.0;"/><text fill="#000000" font-family="sans-serif" font-size="14" lengthAdjust="spacing" textLength="75" x="755" y="647.5889">id: integer</text><ellipse cx="746" cy="660.5391" fill="#000000" rx="3" ry="3" style="stroke:#000000;stroke-width:1.0;"/><text fill="#000000" font-family="sans-serif" font-size="14" lengthAdjust="spacing" textLength="121" x="755" y="663.8857">username: string</text><ellipse cx="746" cy="676.8359" fill="#000000" rx="3" ry="3" style="stroke:#000000;stroke-width:1.0;"/><text fill="#000000" font-family="sans-serif" font-size="14" lengthAdjust="spacing" textLength="73" x="755" y="680.1826">roles: json</text><ellipse cx="746" cy="693.1328" fill="#000000" rx="3" ry="3" style="stroke:#000000;stroke-width:1.0;"/><text fill="#000000" font-family="sans-serif" font-size="14" lengthAdjust="spacing" textLength="118" x="755" y="696.4795">password: string</text><ellipse cx="746" cy="709.4297" fill="#000000" rx="3" ry="3" style="stroke:#000000;stroke-width:1.0;"/><text fill="#000000" font-family="sans-serif" font-size="14" lengthAdjust="spacing" textLength="90" x="755" y="712.7764">email: string</text><ellipse cx="746" cy="725.7266" fill="#000000" rx="3" ry="3" style="stroke:#000000;stroke-width:1.0;"/><text fill="#000000" font-family="sans-serif" font-size="14" lengthAdjust="spacing" textLength="128" x="755" y="729.0732">first_name: string</text><ellipse cx="746" cy="742.0234" fill="#000000" rx="3" ry="3" style="stroke:#000000;stroke-width:1.0;"/><text fill="#000000" font-family="sans-serif" font-size="14" lengthAdjust="spacing" textLength="124" x="755" y="745.3701">last_name: string</text></g><!--class comment--><g id="elem_comment"><rect codeLine="31" fill="url(#g1ohr5wbu00q0i0)" height="123.7813" id="comment" rx="2.5" ry="2.5" style="stroke:#778899;stroke-width:1.0;" width="265" x="252.5" y="44.2969"/><rect fill="url(#g1ohr5wbu00q0i0)" height="26.2969" rx="2.5" ry="2.5" style="stroke:url(#g1ohr5wbu00q0i0);stroke-width:1.0;" width="265" x="252.5" y="44.2969"/><rect fill="url(#g1ohr5wbu00q0i0)" height="2.5" style="stroke:url(#g1ohr5wbu00q0i0);stroke-width:1.0;" width="265" x="252.5" y="68.0938"/><rect codeLine="31" fill="none" height="123.7813" id="comment" rx="2.5" ry="2.5" style="stroke:#778899;stroke-width:1.0;" width="265" x="252.5" y="44.2969"/><text fill="#000000" font-family="sans-serif" font-size="14" lengthAdjust="spacing" textLength="70" x="350" y="62.292">comment</text><line style="stroke:#778899;stroke-width:1.0;" x1="253.5" x2="516.5" y1="70.5938" y2="70.5938"/><line style="stroke:#778899;stroke-width:1.0;" x1="253.5" x2="516.5" y1="78.5938" y2="78.5938"/><ellipse cx="263.5" cy="92.2422" fill="#000000" rx="3" ry="3" style="stroke:#000000;stroke-width:1.0;"/><text fill="#000000" font-family="sans-serif" font-size="14" lengthAdjust="spacing" textLength="75" x="272.5" y="95.5889">id: integer</text><ellipse cx="263.5" cy="108.5391" fill="#000000" rx="3" ry="3" style="stroke:#000000;stroke-width:1.0;"/><text fill="#000000" font-family="sans-serif" font-size="14" lengthAdjust="spacing" textLength="115" x="272.5" y="111.8857">post_id: integer</text><text fill="#000000" font-family="sans-serif" font-size="14" lengthAdjust="spacing" textLength="129" x="272.5" y="128.1826">author_id: integer</text><ellipse cx="263.5" cy="141.1328" fill="#000000" rx="3" ry="3" style="stroke:#000000;stroke-width:1.0;"/><text fill="#000000" font-family="sans-serif" font-size="14" lengthAdjust="spacing" textLength="98" x="272.5" y="144.4795">content: text</text><ellipse cx="263.5" cy="157.4297" fill="#000000" rx="3" ry="3" style="stroke:#000000;stroke-width:1.0;"/><text fill="#000000" font-family="sans-serif" font-size="14" lengthAdjust="spacing" textLength="239" x="272.5" y="160.7764">created_at: datetime_immutable</text></g><!--class help_group--><g id="elem_help_group"><rect codeLine="39" fill="url(#g1ohr5wbu00q0i0)" height="123.7813" id="help_group" rx="2.5" ry="2.5" style="stroke:#778899;stroke-width:1.0;" width="265" x="586.5" y="412.2969"/><rect fill="url(#g1ohr5wbu00q0i0)" height="26.2969" rx="2.5" ry="2.5" style="stroke:url(#g1ohr5wbu00q0i0);stroke-width:1.0;" width="265" x="586.5" y="412.2969"/><rect fill="url(#g1ohr5wbu00q0i0)" height="2.5" style="stroke:url(#g1ohr5wbu00q0i0);stroke-width:1.0;" width="265" x="586.5" y="436.0938"/><rect codeLine="39" fill="none" height="123.7813" id="help_group" rx="2.5" ry="2.5" style="stroke:#778899;stroke-width:1.0;" width="265" x="586.5" y="412.2969"/><text fill="#000000" font-family="sans-serif" font-size="14" lengthAdjust="spacing" textLength="81" x="678.5" y="430.292">help_group</text><line style="stroke:#778899;stroke-width:1.0;" x1="587.5" x2="850.5" y1="438.5938" y2="438.5938"/><line style="stroke:#778899;stroke-width:1.0;" x1="587.5" x2="850.5" y1="446.5938" y2="446.5938"/><ellipse cx="597.5" cy="460.2422" fill="#000000" rx="3" ry="3" style="stroke:#000000;stroke-width:1.0;"/><text fill="#000000" font-family="sans-serif" font-size="14" lengthAdjust="spacing" textLength="75" x="606.5" y="463.5889">id: integer</text><ellipse cx="597.5" cy="476.5391" fill="#000000" rx="3" ry="3" style="stroke:#000000;stroke-width:1.0;"/><text fill="#000000" font-family="sans-serif" font-size="14" lengthAdjust="spacing" textLength="126" x="606.5" y="479.8857">owner_id: integer</text><ellipse cx="597.5" cy="492.8359" fill="#000000" rx="3" ry="3" style="stroke:#000000;stroke-width:1.0;"/><text fill="#000000" font-family="sans-serif" font-size="14" lengthAdjust="spacing" textLength="91" x="606.5" y="496.1826">name: string</text><ellipse cx="597.5" cy="509.1328" fill="#000000" rx="3" ry="3" style="stroke:#000000;stroke-width:1.0;"/><text fill="#000000" font-family="sans-serif" font-size="14" lengthAdjust="spacing" textLength="122" x="606.5" y="512.4795">description: text</text><ellipse cx="597.5" cy="525.4297" fill="#000000" rx="3" ry="3" style="stroke:#000000;stroke-width:1.0;"/><text fill="#000000" font-family="sans-serif" font-size="14" lengthAdjust="spacing" textLength="239" x="606.5" y="528.7764">created_at: datetime_immutable</text></g><!--class membership--><g id="elem_membership"><rect codeLine="47" fill="url(#g1ohr5wbu00q0i0)" height="107.4844" id="membership" rx="2.5" ry="2.5" style="stroke:#778899;stroke-width:1.0;" width="189" x="438.5" y="236.7969"/><rect fill="url(#g1ohr5wbu00q0i0)" height="26.2969" rx="2.5" ry="2.5" style="stroke:url(#g1ohr5wbu00q0i0);stroke-width:1.0;" width="189" x="438.5" y="236.7969"/><rect fill="url(#g1ohr5wbu00q0i0)" height="2.5" style="stroke:url(#g1ohr5wbu00q0i0);stroke-width:1.0;" width="189" x="438.5" y="260.5938"/><rect codeLine="47" fill="none" height="107.4844" id="membership" rx="2.5" ry="2.5" style="stroke:#778899;stroke-width:1.0;" width="189" x="438.5" y="236.7969"/><text fill="#000000" font-family="sans-serif" font-size="14" lengthAdjust="spacing" textLength="92" x="487" y="254.792">membership</text><line style="stroke:#778899;stroke-width:1.0;" x1="439.5" x2="626.5" y1="263.0938" y2="263.0938"/><line style="stroke:#778899;stroke-width:1.0;" x1="439.5" x2="626.5" y1="271.0938" y2="271.0938"/><ellipse cx="449.5" cy="284.7422" fill="#000000" rx="3" ry="3" style="stroke:#000000;stroke-width:1.0;"/><text fill="#000000" font-family="sans-serif" font-size="14" lengthAdjust="spacing" textLength="75" x="458.5" y="288.0889">id: integer</text><ellipse cx="449.5" cy="301.0391" fill="#000000" rx="3" ry="3" style="stroke:#000000;stroke-width:1.0;"/><text fill="#000000" font-family="sans-serif" font-size="14" lengthAdjust="spacing" textLength="144" x="458.5" y="304.3857">member_id: integer</text><ellipse cx="449.5" cy="317.3359" fill="#000000" rx="3" ry="3" style="stroke:#000000;stroke-width:1.0;"/><text fill="#000000" font-family="sans-serif" font-size="14" lengthAdjust="spacing" textLength="163" x="458.5" y="320.6826">help_group_id: integer</text><ellipse cx="449.5" cy="333.6328" fill="#000000" rx="3" ry="3" style="stroke:#000000;stroke-width:1.0;"/><text fill="#000000" font-family="sans-serif" font-size="14" lengthAdjust="spacing" textLength="95" x="458.5" y="336.9795">status: string</text></g><!--class post--><g id="elem_post"><rect codeLine="54" fill="url(#g1ohr5wbu00q0i0)" height="123.7813" id="post" rx="2.5" ry="2.5" style="stroke:#778899;stroke-width:1.0;" width="265" x="662.5" y="228.2969"/><rect fill="url(#g1ohr5wbu00q0i0)" height="26.2969" rx="2.5" ry="2.5" style="stroke:url(#g1ohr5wbu00q0i0);stroke-width:1.0;" width="265" x="662.5" y="228.2969"/><rect fill="url(#g1ohr5wbu00q0i0)" height="2.5" style="stroke:url(#g1ohr5wbu00q0i0);stroke-width:1.0;" width="265" x="662.5" y="252.0938"/><rect codeLine="54" fill="none" height="123.7813" id="post" rx="2.5" ry="2.5" style="stroke:#778899;stroke-width:1.0;" width="265" x="662.5" y="228.2969"/><text fill="#000000" font-family="sans-serif" font-size="14" lengthAdjust="spacing" textLength="33" x="778.5" y="246.292">post</text><line style="stroke:#778899;stroke-width:1.0;" x1="663.5" x2="926.5" y1="254.5938" y2="254.5938"/><line style="stroke:#778899;stroke-width:1.0;" x1="663.5" x2="926.5" y1="262.5938" y2="262.5938"/><ellipse cx="673.5" cy="276.2422" fill="#000000" rx="3" ry="3" style="stroke:#000000;stroke-width:1.0;"/><text fill="#000000" font-family="sans-serif" font-size="14" lengthAdjust="spacing" textLength="75" x="682.5" y="279.5889">id: integer</text><ellipse cx="673.5" cy="292.5391" fill="#000000" rx="3" ry="3" style="stroke:#000000;stroke-width:1.0;"/><text fill="#000000" font-family="sans-serif" font-size="14" lengthAdjust="spacing" textLength="129" x="682.5" y="295.8857">author_id: integer</text><text fill="#000000" font-family="sans-serif" font-size="14" lengthAdjust="spacing" textLength="163" x="682.5" y="312.1826">help_group_id: integer</text><ellipse cx="673.5" cy="325.1328" fill="#000000" rx="3" ry="3" style="stroke:#000000;stroke-width:1.0;"/><text fill="#000000" font-family="sans-serif" font-size="14" lengthAdjust="spacing" textLength="98" x="682.5" y="328.4795">content: text</text><ellipse cx="673.5" cy="341.4297" fill="#000000" rx="3" ry="3" style="stroke:#000000;stroke-width:1.0;"/><text fill="#000000" font-family="sans-serif" font-size="14" lengthAdjust="spacing" textLength="239" x="682.5" y="344.7764">created_at: datetime_immutable</text></g><!--class users_liked_posts--><g id="elem_users_liked_posts"><rect codeLine="62" fill="url(#g1ohr5wbu00q0i0)" height="74.8906" id="users_liked_posts" rx="2.5" ry="2.5" style="stroke:#778899;stroke-width:1.0;" width="150" x="857" y="68.7969"/><rect fill="url(#g1ohr5wbu00q0i0)" height="26.2969" rx="2.5" ry="2.5" style="stroke:url(#g1ohr5wbu00q0i0);stroke-width:1.0;" width="150" x="857" y="68.7969"/><rect fill="url(#g1ohr5wbu00q0i0)" height="2.5" style="stroke:url(#g1ohr5wbu00q0i0);stroke-width:1.0;" width="150" x="857" y="92.5938"/><rect codeLine="62" fill="none" height="74.8906" id="users_liked_posts" rx="2.5" ry="2.5" style="stroke:#778899;stroke-width:1.0;" width="150" x="857" y="68.7969"/><text fill="#000000" font-family="sans-serif" font-size="14" lengthAdjust="spacing" textLength="126" x="869" y="86.792">users_liked_posts</text><line style="stroke:#778899;stroke-width:1.0;" x1="858" x2="1006" y1="95.0938" y2="95.0938"/><line style="stroke:#778899;stroke-width:1.0;" x1="858" x2="1006" y1="103.0938" y2="103.0938"/><ellipse cx="868" cy="116.7422" fill="#000000" rx="3" ry="3" style="stroke:#000000;stroke-width:1.0;"/><text fill="#000000" font-family="sans-serif" font-size="14" lengthAdjust="spacing" textLength="115" x="877" y="120.0889">post_id: integer</text><ellipse cx="868" cy="133.0391" fill="#000000" rx="3" ry="3" style="stroke:#000000;stroke-width:1.0;"/><text fill="#000000" font-family="sans-serif" font-size="14" lengthAdjust="spacing" textLength="112" x="877" y="136.3857">user_id: integer</text></g><!--class users_disliked_posts--><g id="elem_users_disliked_posts"><rect codeLine="67" fill="url(#g1ohr5wbu00q0i0)" height="74.8906" id="users_disliked_posts" rx="2.5" ry="2.5" style="stroke:#778899;stroke-width:1.0;" width="152" x="1042" y="68.7969"/><rect fill="url(#g1ohr5wbu00q0i0)" height="26.2969" rx="2.5" ry="2.5" style="stroke:url(#g1ohr5wbu00q0i0);stroke-width:1.0;" width="152" x="1042" y="68.7969"/><rect fill="url(#g1ohr5wbu00q0i0)" height="2.5" style="stroke:url(#g1ohr5wbu00q0i0);stroke-width:1.0;" width="152" x="1042" y="92.5938"/><rect codeLine="67" fill="none" height="74.8906" id="users_disliked_posts" rx="2.5" ry="2.5" style="stroke:#778899;stroke-width:1.0;" width="152" x="1042" y="68.7969"/><text fill="#000000" font-family="sans-serif" font-size="14" lengthAdjust="spacing" textLength="146" x="1045" y="86.792">users_disliked_posts</text><line style="stroke:#778899;stroke-width:1.0;" x1="1043" x2="1193" y1="95.0938" y2="95.0938"/><line style="stroke:#778899;stroke-width:1.0;" x1="1043" x2="1193" y1="103.0938" y2="103.0938"/><ellipse cx="1053" cy="116.7422" fill="#000000" rx="3" ry="3" style="stroke:#000000;stroke-width:1.0;"/><text fill="#000000" font-family="sans-serif" font-size="14" lengthAdjust="spacing" textLength="115" x="1062" y="120.0889">post_id: integer</text><ellipse cx="1053" cy="133.0391" fill="#000000" rx="3" ry="3" style="stroke:#000000;stroke-width:1.0;"/><text fill="#000000" font-family="sans-serif" font-size="14" lengthAdjust="spacing" textLength="112" x="1062" y="136.3857">user_id: integer</text></g><!--class post_attachment--><g id="elem_post_attachment"><rect codeLine="72" fill="url(#g1ohr5wbu00q0i0)" height="107.4844" id="post_attachment" rx="2.5" ry="2.5" style="stroke:#778899;stroke-width:1.0;" width="269" x="552.5" y="52.7969"/><rect fill="url(#g1ohr5wbu00q0i0)" height="26.2969" rx="2.5" ry="2.5" style="stroke:url(#g1ohr5wbu00q0i0);stroke-width:1.0;" width="269" x="552.5" y="52.7969"/><rect fill="url(#g1ohr5wbu00q0i0)" height="2.5" style="stroke:url(#g1ohr5wbu00q0i0);stroke-width:1.0;" width="269" x="552.5" y="76.5938"/><rect codeLine="72" fill="none" height="107.4844" id="post_attachment" rx="2.5" ry="2.5" style="stroke:#778899;stroke-width:1.0;" width="269" x="552.5" y="52.7969"/><text fill="#000000" font-family="sans-serif" font-size="14" lengthAdjust="spacing" textLength="126" x="624" y="70.792">post_attachment</text><line style="stroke:#778899;stroke-width:1.0;" x1="553.5" x2="820.5" y1="79.0938" y2="79.0938"/><line style="stroke:#778899;stroke-width:1.0;" x1="553.5" x2="820.5" y1="87.0938" y2="87.0938"/><ellipse cx="563.5" cy="100.7422" fill="#000000" rx="3" ry="3" style="stroke:#000000;stroke-width:1.0;"/><text fill="#000000" font-family="sans-serif" font-size="14" lengthAdjust="spacing" textLength="75" x="572.5" y="104.0889">id: integer</text><ellipse cx="563.5" cy="117.0391" fill="#000000" rx="3" ry="3" style="stroke:#000000;stroke-width:1.0;"/><text fill="#000000" font-family="sans-serif" font-size="14" lengthAdjust="spacing" textLength="115" x="572.5" y="120.3857">post_id: integer</text><text fill="#000000" font-family="sans-serif" font-size="14" lengthAdjust="spacing" textLength="110" x="572.5" y="136.6826">file_name: text</text><text fill="#000000" font-family="sans-serif" font-size="14" lengthAdjust="spacing" textLength="243" x="572.5" y="152.9795">updated_at: datetime_immutable</text></g><!--link comment to post--><g id="link_comment_post"><path codeLine="79" d="M478,186.3089 C478,218.5469 478,233.2969 478,233.2969 C478,233.2969 567.534,233.2969 654.4,233.2969 " fill="none" id="comment-post" style="stroke:#333333;stroke-width:1.5;"/><line style="stroke:#333333;stroke-width:1.5;" x1="478" x2="472" y1="176.3089" y2="168.3089"/><line style="stroke:#333333;stroke-width:1.5;" x1="478" x2="484" y1="176.3089" y2="168.3089"/><line style="stroke:#333333;stroke-width:1.5;" x1="478" x2="478" y1="176.3089" y2="168.3089"/><ellipse cx="478" cy="182.3089" fill="none" rx="4" ry="4" style="stroke:#333333;stroke-width:1.5;"/><line style="stroke:#333333;stroke-width:1.5;" x1="658.4" x2="658.4" y1="229.2969" y2="237.2969"/><line style="stroke:#333333;stroke-width:1.5;" x1="655.4" x2="655.4" y1="229.2969" y2="237.2969"/><line style="stroke:#333333;stroke-width:1.5;" x1="654.4" x2="662.4" y1="233.2969" y2="233.2969"/></g><!--link comment to user--><g id="link_comment_user"><path codeLine="80" d="M345.5,186.4629 C345.5,338.7859 345.5,700.2969 345.5,700.2969 C345.5,700.2969 587.468,700.2969 719.967,700.2969 " fill="none" id="comment-user" style="stroke:#333333;stroke-width:1.5;"/><line style="stroke:#333333;stroke-width:1.5;" x1="345.5" x2="339.5" y1="176.4629" y2="168.4629"/><line style="stroke:#333333;stroke-width:1.5;" x1="345.5" x2="351.5" y1="176.4629" y2="168.4629"/><line style="stroke:#333333;stroke-width:1.5;" x1="345.5" x2="345.5" y1="176.4629" y2="168.4629"/><ellipse cx="345.5" cy="182.4629" fill="none" rx="4" ry="4" style="stroke:#333333;stroke-width:1.5;"/><line style="stroke:#333333;stroke-width:1.5;" x1="723.467" x2="734.967" y1="700.2969" y2="700.2969"/><ellipse cx="723.467" cy="700.2969" fill="none" rx="4.5" ry="4.5" style="stroke:#333333;stroke-width:1.5;"/><line style="stroke:#333333;stroke-width:1.5;" x1="730.967" x2="730.967" y1="695.7969" y2="704.7969"/></g><!--link help_group to user--><g id="link_help_group_user"><path codeLine="81" d="M793.25,554.4819 C793.25,573.4019 793.25,568.4409 793.25,588.2669 " fill="none" id="help_group-user" style="stroke:#333333;stroke-width:1.5;"/><line style="stroke:#333333;stroke-width:1.5;" x1="793.25" x2="787.25" y1="544.4819" y2="536.4819"/><line style="stroke:#333333;stroke-width:1.5;" x1="793.25" x2="799.25" y1="544.4819" y2="536.4819"/><line style="stroke:#333333;stroke-width:1.5;" x1="793.25" x2="793.25" y1="544.4819" y2="536.4819"/><ellipse cx="793.25" cy="550.4819" fill="none" rx="4" ry="4" style="stroke:#333333;stroke-width:1.5;"/><line style="stroke:#333333;stroke-width:1.5;" x1="797.25" x2="789.25" y1="592.2669" y2="592.2669"/><line style="stroke:#333333;stroke-width:1.5;" x1="797.25" x2="789.25" y1="589.2669" y2="589.2669"/><line style="stroke:#333333;stroke-width:1.5;" x1="793.25" x2="793.25" y1="588.2669" y2="596.2669"/></g><!--link membership to help_group--><g id="link_membership_help_group"><path codeLine="82" d="M607,362.0119 C607,383.3329 607,381.9929 607,404.0839 " fill="none" id="membership-help_group" style="stroke:#333333;stroke-width:1.5;"/><line style="stroke:#333333;stroke-width:1.5;" x1="607" x2="601" y1="352.0119" y2="344.0119"/><line style="stroke:#333333;stroke-width:1.5;" x1="607" x2="613" y1="352.0119" y2="344.0119"/><line style="stroke:#333333;stroke-width:1.5;" x1="607" x2="607" y1="352.0119" y2="344.0119"/><ellipse cx="607" cy="358.0119" fill="none" rx="4" ry="4" style="stroke:#333333;stroke-width:1.5;"/><line style="stroke:#333333;stroke-width:1.5;" x1="611" x2="603" y1="408.0839" y2="408.0839"/><line style="stroke:#333333;stroke-width:1.5;" x1="611" x2="603" y1="405.0839" y2="405.0839"/><line style="stroke:#333333;stroke-width:1.5;" x1="607" x2="607" y1="404.0839" y2="412.0839"/></g><!--link membership to user--><g id="link_membership_user"><path codeLine="83" d="M512.5,361.8929 C512.5,461.7629 512.5,648.2969 512.5,648.2969 C512.5,648.2969 638.132,648.2969 726.871,648.2969 " fill="none" id="membership-user" style="stroke:#333333;stroke-width:1.5;"/><line style="stroke:#333333;stroke-width:1.5;" x1="512.5" x2="506.5" y1="351.8929" y2="343.8929"/><line style="stroke:#333333;stroke-width:1.5;" x1="512.5" x2="518.5" y1="351.8929" y2="343.8929"/><line style="stroke:#333333;stroke-width:1.5;" x1="512.5" x2="512.5" y1="351.8929" y2="343.8929"/><ellipse cx="512.5" cy="357.8929" fill="none" rx="4" ry="4" style="stroke:#333333;stroke-width:1.5;"/><line style="stroke:#333333;stroke-width:1.5;" x1="730.871" x2="730.871" y1="644.2969" y2="652.2969"/><line style="stroke:#333333;stroke-width:1.5;" x1="727.871" x2="727.871" y1="644.2969" y2="652.2969"/><line style="stroke:#333333;stroke-width:1.5;" x1="726.871" x2="734.871" y1="648.2969" y2="648.2969"/></g><!--link post to user--><g id="link_post_user"><path codeLine="84" d="M870.25,370.4199 C870.25,436.7529 870.25,516.0219 870.25,587.9859 " fill="none" id="post-user" style="stroke:#333333;stroke-width:1.5;"/><line style="stroke:#333333;stroke-width:1.5;" x1="870.25" x2="864.25" y1="360.4199" y2="352.4199"/><line style="stroke:#333333;stroke-width:1.5;" x1="870.25" x2="876.25" y1="360.4199" y2="352.4199"/><line style="stroke:#333333;stroke-width:1.5;" x1="870.25" x2="870.25" y1="360.4199" y2="352.4199"/><ellipse cx="870.25" cy="366.4199" fill="none" rx="4" ry="4" style="stroke:#333333;stroke-width:1.5;"/><line style="stroke:#333333;stroke-width:1.5;" x1="874.25" x2="866.25" y1="591.9859" y2="591.9859"/><line style="stroke:#333333;stroke-width:1.5;" x1="874.25" x2="866.25" y1="588.9859" y2="588.9859"/><line style="stroke:#333333;stroke-width:1.5;" x1="870.25" x2="870.25" y1="587.9859" y2="595.9859"/></g><!--link post to help_group--><g id="link_post_help_group"><path codeLine="85" d="M757,370.3339 C757,389.6359 757,377.9119 757,397.2159 " fill="none" id="post-help_group" style="stroke:#333333;stroke-width:1.5;"/><line style="stroke:#333333;stroke-width:1.5;" x1="757" x2="751" y1="360.3339" y2="352.3339"/><line style="stroke:#333333;stroke-width:1.5;" x1="757" x2="763" y1="360.3339" y2="352.3339"/><line style="stroke:#333333;stroke-width:1.5;" x1="757" x2="757" y1="360.3339" y2="352.3339"/><ellipse cx="757" cy="366.3339" fill="none" rx="4" ry="4" style="stroke:#333333;stroke-width:1.5;"/><line style="stroke:#333333;stroke-width:1.5;" x1="757" x2="757" y1="400.7159" y2="412.2159"/><ellipse cx="757" cy="400.7159" fill="none" rx="4.5" ry="4.5" style="stroke:#333333;stroke-width:1.5;"/><line style="stroke:#333333;stroke-width:1.5;" x1="761.5" x2="752.5" y1="408.2159" y2="408.2159"/></g><!--link users_liked_posts to post--><g id="link_users_liked_posts_post"><path codeLine="86" d="M892.25,161.9759 C892.25,186.1579 892.25,192.1419 892.25,220.0369 " fill="none" id="users_liked_posts-post" style="stroke:#333333;stroke-width:1.5;"/><line style="stroke:#333333;stroke-width:1.5;" x1="892.25" x2="886.25" y1="151.9759" y2="143.9759"/><line style="stroke:#333333;stroke-width:1.5;" x1="892.25" x2="898.25" y1="151.9759" y2="143.9759"/><line style="stroke:#333333;stroke-width:1.5;" x1="892.25" x2="892.25" y1="151.9759" y2="143.9759"/><ellipse cx="892.25" cy="157.9759" fill="none" rx="4" ry="4" style="stroke:#333333;stroke-width:1.5;"/><line style="stroke:#333333;stroke-width:1.5;" x1="896.25" x2="888.25" y1="224.0369" y2="224.0369"/><line style="stroke:#333333;stroke-width:1.5;" x1="896.25" x2="888.25" y1="221.0369" y2="221.0369"/><line style="stroke:#333333;stroke-width:1.5;" x1="892.25" x2="892.25" y1="220.0369" y2="228.0369"/></g><!--link users_liked_posts to user--><g id="link_users_liked_posts_user"><path codeLine="87" d="M967.25,161.9789 C967.25,284.8929 967.25,648.2969 967.25,648.2969 C967.25,648.2969 936.134,648.2969 897.17,648.2969 " fill="none" id="users_liked_posts-user" style="stroke:#333333;stroke-width:1.5;"/><line style="stroke:#333333;stroke-width:1.5;" x1="967.25" x2="961.25" y1="151.9789" y2="143.9789"/><line style="stroke:#333333;stroke-width:1.5;" x1="967.25" x2="973.25" y1="151.9789" y2="143.9789"/><line style="stroke:#333333;stroke-width:1.5;" x1="967.25" x2="967.25" y1="151.9789" y2="143.9789"/><ellipse cx="967.25" cy="157.9789" fill="none" rx="4" ry="4" style="stroke:#333333;stroke-width:1.5;"/><line style="stroke:#333333;stroke-width:1.5;" x1="893.17" x2="893.17" y1="652.2969" y2="644.2969"/><line style="stroke:#333333;stroke-width:1.5;" x1="896.17" x2="896.17" y1="652.2969" y2="644.2969"/><line style="stroke:#333333;stroke-width:1.5;" x1="897.17" x2="889.17" y1="648.2969" y2="648.2969"/></g><!--link users_disliked_posts to post--><g id="link_users_disliked_posts_post"><path codeLine="88" d="M1092.67,161.9759 C1092.67,215.8079 1092.67,290.2969 1092.67,290.2969 C1092.67,290.2969 1015.11,290.2969 935.728,290.2969 " fill="none" id="users_disliked_posts-post" style="stroke:#333333;stroke-width:1.5;"/><line style="stroke:#333333;stroke-width:1.5;" x1="1092.67" x2="1086.67" y1="151.9759" y2="143.9759"/><line style="stroke:#333333;stroke-width:1.5;" x1="1092.67" x2="1098.67" y1="151.9759" y2="143.9759"/><line style="stroke:#333333;stroke-width:1.5;" x1="1092.67" x2="1092.67" y1="151.9759" y2="143.9759"/><ellipse cx="1092.67" cy="157.9759" fill="none" rx="4" ry="4" style="stroke:#333333;stroke-width:1.5;"/><line style="stroke:#333333;stroke-width:1.5;" x1="931.728" x2="931.728" y1="294.2969" y2="286.2969"/><line style="stroke:#333333;stroke-width:1.5;" x1="934.728" x2="934.728" y1="294.2969" y2="286.2969"/><line style="stroke:#333333;stroke-width:1.5;" x1="935.728" x2="927.728" y1="290.2969" y2="290.2969"/></g><!--link users_disliked_posts to user--><g id="link_users_disliked_posts_user"><path codeLine="89" d="M1143.33,161.9049 C1143.33,292.4779 1143.33,700.2969 1143.33,700.2969 C1143.33,700.2969 995.171,700.2969 897.265,700.2969 " fill="none" id="users_disliked_posts-user" style="stroke:#333333;stroke-width:1.5;"/><line style="stroke:#333333;stroke-width:1.5;" x1="1143.33" x2="1137.33" y1="151.9049" y2="143.9049"/><line style="stroke:#333333;stroke-width:1.5;" x1="1143.33" x2="1149.33" y1="151.9049" y2="143.9049"/><line style="stroke:#333333;stroke-width:1.5;" x1="1143.33" x2="1143.33" y1="151.9049" y2="143.9049"/><ellipse cx="1143.33" cy="157.9049" fill="none" rx="4" ry="4" style="stroke:#333333;stroke-width:1.5;"/><line style="stroke:#333333;stroke-width:1.5;" x1="893.265" x2="893.265" y1="704.2969" y2="696.2969"/><line style="stroke:#333333;stroke-width:1.5;" x1="896.265" x2="896.265" y1="704.2969" y2="696.2969"/><line style="stroke:#333333;stroke-width:1.5;" x1="897.265" x2="889.265" y1="700.2969" y2="700.2969"/></g><!--link post_attachment to post--><g id="link_post_attachment_post"><path codeLine="90" d="M742,178.0119 C742,199.3329 742,197.9929 742,220.0839 " fill="none" id="post_attachment-post" style="stroke:#333333;stroke-width:1.5;"/><line style="stroke:#333333;stroke-width:1.5;" x1="742" x2="736" y1="168.0119" y2="160.0119"/><line style="stroke:#333333;stroke-width:1.5;" x1="742" x2="748" y1="168.0119" y2="160.0119"/><line style="stroke:#333333;stroke-width:1.5;" x1="742" x2="742" y1="168.0119" y2="160.0119"/><ellipse cx="742" cy="174.0119" fill="none" rx="4" ry="4" style="stroke:#333333;stroke-width:1.5;"/><line style="stroke:#333333;stroke-width:1.5;" x1="746" x2="738" y1="224.0839" y2="224.0839"/><line style="stroke:#333333;stroke-width:1.5;" x1="746" x2="738" y1="221.0839" y2="221.0839"/><line style="stroke:#333333;stroke-width:1.5;" x1="742" x2="742" y1="220.0839" y2="228.0839"/></g><!--SRC=[fLDDZzem4BtdLrZQ6n9LjsWlt2ZILYlHBX98UuoyyH1FyKTaJyf6PVzxdH3015DfsnFncpTlFjuWKG03NL73DEXNS3wJBLIWAnHaVekcuevhDdFExkPMMSVk9fF9CBAMM6mDUC_kFpr4mRdYtd_bnRPqjZRY8F0YaM0yMouNJ_FP-kdvnrM2TGBSWRp0Kj9ASO9lZZTfPbGz8dn7qt5UK91azm-VezW23QoR2jYp8scZm4foONTeIhRXoiSRM8OfU0d3OUu0KgneWZJZqHfQKQE06UiqLnaXXOTlzCQQvai69W0D4xOW5vhDDPQE4rgJ_mekXL_FVcVZSJPY_NlAVCiiCmPlKDG48kSqPI9iZb334MuLslUKeI4emMNlnrgr1tSKHN4cZBg8uMrINsF4d5NWf-odjoQygh3dNPWv8e3cgABt1fsdVA0I_1bWfsuAgtNuJ3TKsP0NGupNmKYNNzAAiEIWCMK4RzI-7V3XOdBKkYR-6ixzL5k2glBMvIfTtkuC36iD9XFW2uSLTSvyi7p_LvHue_mXFgX_xdaGyCIfzjSBRdUOra_iyhRyl-wulIcVAzm6RjlAwPwll3tStmKqK17e_rUe8tCYNiYFdDq65VG7tCtFwahyVVpZNR_RyNY_xoGlCBllkioY6-of7HpTHW-VYObWbzCvdGJiHVgr9N6JDwETPDA8w_GquTHKx42K_0S0]--></g></svg>